<svg xmlns="http://www.w3.org/2000/svg" xmlns:xlink="http://www.w3.org/1999/xlink" id="Layer_1" x="0" y="0" version="1.1" viewBox="0 0 20 20" xml:space="preserve" style="enable-background:new 0 0 20 20"><style type="text/css">.st0,.st1{opacity:.99;enable-background:new}.st1{opacity:.3;fill-rule:evenodd;clip-rule:evenodd}.st1,.st2{fill:#fff}</style><g class="st0"><path d="M3.5,16.5h13v-13h-13V16.5" class="st1"/><path d="M8.5,8c0.2,0,0.4,0.1,0.5,0.3l3,6c0.1,0.2,0,0.5-0.2,0.7c-0.1,0-0.1,0.1-0.2,0.1h-6C5.2,15,5,14.8,5,14.5 c0-0.1,0-0.2,0.1-0.2l3-6C8.1,8.1,8.3,8,8.5,8z" class="st2"/><path d="M13.5,6C14.3,6,15,6.7,15,7.5S14.3,9,13.5,9S12,8.3,12,7.5S12.7,6,13.5,6z" class="st2"/><path d="M16,4v12H4V4H16 M16.5,3h-13C3.2,3,3,3.2,3,3.5v13C3,16.8,3.2,17,3.5,17h13c0.3,0,0.5-0.2,0.5-0.5v-13 C17,3.2,16.8,3,16.5,3L16.5,3z" class="st2"/></g></svg>