<svg xmlns="http://www.w3.org/2000/svg" id="Layer_1" x="0" y="0" fill="#fff" version="1.1" viewBox="0 0 20 20" xml:space="preserve"><g fill="#fff"><path id="path6" d="M8.5 8c.2 0 .4.1.5.3l3 6c.1.2 0 .5-.2.7-.1 0-.1.1-.2.1h-6c-.4-.1-.6-.3-.6-.6 0-.1 0-.2.1-.2l3-6c0-.2.2-.3.4-.3z"/><path id="path8" d="M13.5 6c.8 0 1.5.7 1.5 1.5S14.3 9 13.5 9 12 8.3 12 7.5 12.7 6 13.5 6z"/><path id="path10" d="M16 4v12H4V4h12m.5-1h-13c-.3 0-.5.2-.5.5v13c0 .3.2.5.5.5h13c.3 0 .5-.2.5-.5v-13c0-.3-.2-.5-.5-.5z"/></g></svg>